<?xml version="1.0" encoding="utf-8"?>
<!-- Generator: Adobe Illustrator 24.0.1, SVG Export Plug-In . SVG Version: 6.00 Build 0)  -->
<svg version="1.1" id="Layer_1" xmlns="http://www.w3.org/2000/svg" xmlns:xlink="http://www.w3.org/1999/xlink" x="0px" y="0px"
	 viewBox="0 0 50 24" style="enable-background:new 0 0 50 24;" xml:space="preserve">
<style type="text/css">
	.st0{fill:#FFFFFF;}
</style>
<g>
	<g>
		<g>
			<g>
				<g>
					<g>
						<path class="st0" d="M26.05,17.22h0.36c0.01,0.1,0.05,0.18,0.12,0.22c0.07,0.05,0.16,0.07,0.28,0.07
							c0.11,0,0.19-0.02,0.24-0.06c0.05-0.04,0.08-0.09,0.08-0.16c0-0.11-0.15-0.2-0.46-0.27l-0.01-0.01l-0.04-0.01
							c-0.18-0.04-0.29-0.08-0.35-0.12c-0.07-0.04-0.12-0.09-0.14-0.16c-0.03-0.06-0.05-0.14-0.05-0.24c0-0.17,0.06-0.3,0.18-0.4
							c0.12-0.09,0.29-0.14,0.51-0.14c0.21,0,0.37,0.05,0.48,0.14c0.12,0.11,0.18,0.25,0.19,0.42h-0.21c-0.08,0-0.14-0.04-0.17-0.11
							c-0.02-0.03-0.04-0.06-0.07-0.09c-0.06-0.04-0.15-0.07-0.25-0.07c-0.1,0-0.18,0.02-0.22,0.06c-0.05,0.04-0.08,0.09-0.08,0.16
							c0,0.09,0.1,0.16,0.3,0.21c0.06,0.02,0.1,0.03,0.13,0.03c0.06,0.02,0.12,0.04,0.16,0.05c0.05,0.01,0.08,0.02,0.11,0.03
							c0.05,0.02,0.1,0.04,0.14,0.06c0.07,0.04,0.12,0.09,0.16,0.16c0.04,0.07,0.06,0.15,0.06,0.24c0,0.19-0.06,0.33-0.19,0.43
							c-0.12,0.1-0.3,0.14-0.53,0.14c-0.23,0-0.41-0.05-0.53-0.15C26.13,17.57,26.06,17.42,26.05,17.22z"/>
						<path class="st0" d="M29.41,17.77v-1.46h-0.53v-0.13c0-0.05,0.02-0.1,0.05-0.13c0.04-0.04,0.08-0.05,0.13-0.05h1.23v0.31
							h-0.52v1.46H29.41z"/>
						<path class="st0" d="M32.05,16v1.11c0,0.14,0.03,0.24,0.08,0.3c0.05,0.06,0.14,0.09,0.26,0.09c0.12,0,0.2-0.03,0.26-0.09
							c0.05-0.06,0.08-0.16,0.08-0.3V16h0.37v1.15c0,0.22-0.06,0.39-0.19,0.5c-0.11,0.11-0.29,0.17-0.53,0.17
							c-0.24,0-0.41-0.06-0.53-0.17c-0.12-0.11-0.19-0.28-0.19-0.5v-0.95c0-0.05,0.02-0.1,0.05-0.14c0.04-0.04,0.08-0.06,0.13-0.06
							H32.05z"/>
						<path class="st0" d="M34.49,17.77v-1.59c0-0.05,0.02-0.1,0.05-0.13S34.62,16,34.67,16h0.51c0.27,0,0.47,0.07,0.61,0.22
							c0.13,0.15,0.2,0.37,0.2,0.67c0,0.16-0.02,0.3-0.07,0.43c-0.05,0.13-0.13,0.23-0.22,0.3c-0.08,0.06-0.16,0.1-0.24,0.12
							c-0.08,0.02-0.21,0.04-0.38,0.04H34.49z M34.84,17.45h0.29c0.17,0,0.29-0.04,0.37-0.13c0.08-0.08,0.11-0.23,0.11-0.43
							c0-0.2-0.04-0.35-0.11-0.44c-0.07-0.09-0.18-0.14-0.33-0.14h-0.34V17.45z"/>
						<path class="st0" d="M37.38,17.77v-1.59c0-0.05,0.02-0.1,0.05-0.13S37.52,16,37.57,16h0.18v1.77H37.38z"/>
						<path class="st0" d="M39.05,16.89c0-0.29,0.08-0.52,0.23-0.69c0.16-0.17,0.37-0.25,0.63-0.25c0.26,0,0.47,0.08,0.63,0.25
							c0.15,0.17,0.23,0.4,0.23,0.69c0,0.29-0.08,0.51-0.23,0.68c-0.16,0.16-0.37,0.25-0.63,0.25c-0.27,0-0.48-0.08-0.63-0.25
							C39.13,17.4,39.05,17.18,39.05,16.89z M39.42,16.89c0,0.2,0.04,0.35,0.13,0.45c0.09,0.11,0.21,0.16,0.37,0.16
							c0.15,0,0.28-0.05,0.37-0.16c0.09-0.11,0.13-0.26,0.13-0.45c0-0.19-0.04-0.35-0.13-0.46c-0.09-0.11-0.21-0.16-0.37-0.16
							c-0.16,0-0.28,0.05-0.37,0.16C39.46,16.54,39.42,16.69,39.42,16.89z"/>
						<path class="st0" d="M42.18,17.22h0.36c0.01,0.1,0.05,0.18,0.12,0.22c0.07,0.05,0.16,0.07,0.28,0.07
							c0.11,0,0.19-0.02,0.24-0.06c0.05-0.04,0.08-0.09,0.08-0.16c0-0.11-0.15-0.2-0.46-0.27l-0.01-0.01l-0.04-0.01
							c-0.18-0.04-0.29-0.08-0.35-0.12c-0.07-0.04-0.12-0.09-0.14-0.16c-0.03-0.06-0.05-0.14-0.05-0.24c0-0.17,0.06-0.3,0.18-0.4
							c0.12-0.09,0.29-0.14,0.51-0.14c0.21,0,0.37,0.05,0.48,0.14c0.12,0.11,0.18,0.25,0.19,0.42h-0.21c-0.08,0-0.14-0.04-0.17-0.11
							c-0.02-0.03-0.04-0.06-0.07-0.09c-0.06-0.04-0.15-0.07-0.25-0.07c-0.1,0-0.18,0.02-0.22,0.06c-0.05,0.04-0.08,0.09-0.08,0.16
							c0,0.09,0.1,0.16,0.3,0.21c0.06,0.02,0.1,0.03,0.13,0.03c0.06,0.02,0.12,0.04,0.16,0.05c0.05,0.01,0.08,0.02,0.11,0.03
							c0.05,0.02,0.1,0.04,0.14,0.06c0.07,0.04,0.12,0.09,0.16,0.16c0.04,0.07,0.06,0.15,0.06,0.24c0,0.19-0.06,0.33-0.19,0.43
							c-0.12,0.1-0.3,0.14-0.53,0.14c-0.23,0-0.41-0.05-0.53-0.15C42.26,17.57,42.19,17.42,42.18,17.22z"/>
					</g>
				</g>
				<g>
					<rect x="0.83" y="16.82" class="st0" width="23.19" height="0.29"/>
				</g>
				<g>
					<rect x="45.65" y="16.82" class="st0" width="4.25" height="0.29"/>
				</g>
			</g>
		</g>
		<g>
			<g>
				<path class="st0" d="M43.8,11.7c0,0.51-0.13,0.9-0.4,1.18c-0.27,0.28-0.62,0.42-1.05,0.42c-0.44,0-0.78-0.14-1.02-0.41
					c-0.24-0.27-0.36-0.66-0.36-1.17V8.05h-1.5v4.13c0,0.76,0.2,1.37,0.6,1.82c0.4,0.45,0.97,0.68,1.7,0.68
					c0.5,0,0.91-0.11,1.22-0.34c0.32-0.23,0.58-0.5,0.8-0.81v1.02h1.5V8.05h-1.5V11.7z"/>
				<path class="st0" d="M49.9,9.31V8.05h-1.74V6.27h-1.5v1.78h-0.82v1.26h0.82v3.42c0,0.36,0.05,0.66,0.14,0.9
					c0.09,0.24,0.22,0.44,0.39,0.58c0.17,0.15,0.37,0.25,0.6,0.32c0.23,0.07,0.48,0.1,0.75,0.1c0.28,0,0.52-0.03,0.74-0.09
					c0.21-0.06,0.41-0.14,0.6-0.25v-1.22c-0.29,0.15-0.6,0.22-0.92,0.22c-0.25,0-0.45-0.06-0.59-0.19
					c-0.14-0.13-0.21-0.33-0.21-0.62V9.31H49.9z"/>
				<path class="st0" d="M36.8,5.36h-0.76c-1.18,0-2.14,0.96-2.14,2.14v5c0,1.18,0.96,2.14,2.14,2.14h0.76
					c1.18,0,2.14-0.96,2.14-2.14v-5C38.94,6.32,37.98,5.36,36.8,5.36z M37.53,12.51c0,0.52-0.42,0.94-0.94,0.94h-0.33
					c-0.52,0-0.94-0.42-0.94-0.94V7.49c0-0.52,0.42-0.94,0.94-0.94h0.33c0.52,0,0.94,0.42,0.94,0.94V12.51z"/>
				<path class="st0" d="M6.18,10.34c-0.24-0.21-0.53-0.38-0.89-0.52C4.93,9.67,4.52,9.54,4.06,9.43c-0.42-0.1-0.77-0.2-1.04-0.29
					c-0.27-0.09-0.49-0.19-0.64-0.3C2.23,8.73,2.12,8.61,2.06,8.48C2,8.36,1.97,8.21,1.97,8.03c0-0.29,0.13-0.54,0.38-0.75
					C2.6,7.08,2.95,6.98,3.4,6.98c0.4,0,0.8,0.08,1.19,0.23c0.39,0.16,0.79,0.38,1.19,0.67l0.83-1.17C6.17,6.35,5.68,6.08,5.17,5.89
					C4.65,5.7,4.07,5.61,3.43,5.61c-0.44,0-0.84,0.06-1.2,0.18c-0.37,0.12-0.68,0.3-0.94,0.52c-0.26,0.23-0.47,0.5-0.62,0.81
					C0.51,7.44,0.44,7.79,0.44,8.17c0,0.41,0.06,0.76,0.19,1.04C0.77,9.5,0.95,9.74,1.2,9.94c0.25,0.2,0.55,0.37,0.92,0.5
					c0.37,0.13,0.78,0.26,1.25,0.36c0.41,0.1,0.75,0.2,1,0.29c0.26,0.09,0.46,0.19,0.6,0.3c0.15,0.1,0.25,0.22,0.3,0.35
					c0.05,0.13,0.08,0.27,0.08,0.43c0,0.34-0.14,0.62-0.42,0.82c-0.28,0.2-0.66,0.3-1.14,0.3c-0.55,0-1.05-0.1-1.48-0.3
					c-0.44-0.2-0.87-0.48-1.29-0.85L0.1,13.25c0.53,0.48,1.1,0.83,1.72,1.06c0.62,0.23,1.27,0.35,1.95,0.35
					c0.46,0,0.88-0.06,1.27-0.18c0.38-0.12,0.71-0.29,0.99-0.52c0.27-0.23,0.49-0.5,0.64-0.83c0.15-0.33,0.23-0.7,0.23-1.12
					c0-0.37-0.06-0.69-0.18-0.96C6.59,10.78,6.41,10.54,6.18,10.34z"/>
				<path class="st0" d="M9.34,6.07H7.81v1.82H6.96v1.29h0.84v3.5c0,0.37,0.05,0.68,0.14,0.93c0.09,0.25,0.23,0.45,0.4,0.6
					c0.17,0.15,0.38,0.26,0.61,0.33c0.24,0.07,0.49,0.1,0.77,0.1c0.28,0,0.54-0.03,0.75-0.09c0.22-0.06,0.42-0.14,0.62-0.25v-1.24
					c-0.3,0.15-0.62,0.23-0.94,0.23c-0.26,0-0.46-0.07-0.6-0.2c-0.14-0.13-0.21-0.34-0.21-0.64V9.19h1.78V7.89H9.34V6.07z"/>
				<path class="st0" d="M14.84,7.79c-0.54,0-1.01,0.05-1.39,0.15c-0.39,0.1-0.76,0.23-1.13,0.4l0.41,1.22
					c0.3-0.13,0.6-0.23,0.89-0.3c0.29-0.08,0.63-0.11,1-0.11c0.53,0,0.93,0.12,1.21,0.36c0.28,0.24,0.42,0.59,0.42,1.06v0.16
					c-0.26-0.08-0.53-0.15-0.81-0.2c-0.28-0.05-0.62-0.08-1.02-0.08c-0.39,0-0.74,0.04-1.07,0.13c-0.33,0.09-0.62,0.22-0.85,0.4
					c-0.24,0.18-0.43,0.4-0.56,0.67c-0.13,0.27-0.2,0.58-0.2,0.94v0.03c0,0.34,0.06,0.63,0.19,0.89c0.13,0.26,0.3,0.47,0.52,0.64
					c0.21,0.17,0.46,0.3,0.75,0.39c0.28,0.09,0.59,0.13,0.9,0.13c0.5,0,0.93-0.09,1.28-0.28c0.35-0.18,0.64-0.41,0.87-0.68v0.82
					h1.51V10.6c0-0.89-0.24-1.58-0.72-2.07C16.56,8.04,15.83,7.79,14.84,7.79z M16.28,12.13c0,0.21-0.04,0.4-0.13,0.57
					s-0.21,0.32-0.37,0.44c-0.16,0.12-0.35,0.22-0.56,0.28c-0.21,0.07-0.45,0.1-0.7,0.1c-0.36,0-0.66-0.08-0.91-0.25
					c-0.25-0.17-0.37-0.41-0.37-0.73v-0.03c0-0.34,0.13-0.61,0.4-0.79c0.27-0.18,0.64-0.28,1.12-0.28c0.29,0,0.57,0.03,0.84,0.08
					c0.26,0.05,0.49,0.11,0.68,0.19V12.13z"/>
				<path class="st0" d="M22.17,7.76c-0.26,0-0.49,0.03-0.7,0.1c-0.2,0.06-0.39,0.15-0.56,0.26c-0.17,0.11-0.32,0.23-0.45,0.37
					c-0.13,0.14-0.25,0.29-0.36,0.45V7.89h-1.53v6.63h1.53v-3.73c0-0.52,0.14-0.92,0.41-1.21c0.27-0.29,0.63-0.43,1.07-0.43
					c0.45,0,0.79,0.14,1.04,0.42c0.24,0.28,0.37,0.68,0.37,1.2v3.76h1.53v-4.22c0-0.78-0.2-1.4-0.61-1.86
					C23.5,7.99,22.92,7.76,22.17,7.76z"/>
				<path class="st0" d="M30.36,8.92c-0.24-0.31-0.54-0.58-0.9-0.82c-0.36-0.23-0.81-0.35-1.35-0.35c-0.39,0-0.77,0.08-1.15,0.23
					c-0.37,0.15-0.7,0.38-0.98,0.67c-0.28,0.3-0.51,0.66-0.68,1.09c-0.17,0.43-0.26,0.92-0.26,1.47c0,0.55,0.09,1.04,0.26,1.47
					s0.41,0.79,0.69,1.09c0.28,0.3,0.61,0.52,0.98,0.67c0.37,0.15,0.75,0.23,1.14,0.23c0.53,0,0.98-0.12,1.35-0.36
					c0.36-0.24,0.67-0.54,0.91-0.88v1.11h1.53V5.36h-1.53V8.92z M30.23,12.09c-0.1,0.26-0.24,0.48-0.42,0.67
					c-0.18,0.19-0.38,0.33-0.61,0.43c-0.23,0.1-0.48,0.15-0.73,0.15c-0.26,0-0.5-0.05-0.73-0.15c-0.23-0.1-0.43-0.24-0.61-0.43
					c-0.18-0.18-0.31-0.41-0.41-0.67c-0.1-0.26-0.15-0.56-0.15-0.89c0-0.34,0.05-0.63,0.15-0.9c0.1-0.26,0.24-0.49,0.41-0.67
					c0.18-0.18,0.38-0.32,0.61-0.42c0.23-0.1,0.47-0.14,0.73-0.14c0.25,0,0.49,0.05,0.73,0.15c0.23,0.1,0.44,0.24,0.61,0.43
					c0.18,0.19,0.31,0.41,0.42,0.67c0.1,0.26,0.16,0.55,0.16,0.88C30.38,11.54,30.33,11.83,30.23,12.09z"/>
			</g>
		</g>
	</g>
</g>
</svg>
